<?xml version="1.0" encoding="UTF-8" standalone="no"?>
<!-- Created with Inkscape (http://www.inkscape.org/) -->

<svg
   width="45.762295mm"
   height="45.762295mm"
   viewBox="0 0 45.762295 45.762295"
   version="1.1"
   id="svg1"
   inkscape:version="1.4.2 (1:1.4.2+202505120737+ebf0e940d0)"
   sodipodi:docname="favicon.svg"
   xmlns:inkscape="http://www.inkscape.org/namespaces/inkscape"
   xmlns:sodipodi="http://sodipodi.sourceforge.net/DTD/sodipodi-0.dtd"
   xmlns="http://www.w3.org/2000/svg"
   xmlns:svg="http://www.w3.org/2000/svg">
  <sodipodi:namedview
     id="namedview1"
     pagecolor="#ffffff"
     bordercolor="#000000"
     borderopacity="0.25"
     inkscape:showpageshadow="2"
     inkscape:pageopacity="0.0"
     inkscape:pagecheckerboard="0"
     inkscape:deskcolor="#d1d1d1"
     inkscape:document-units="mm"
     inkscape:zoom="2.0058127"
     inkscape:cx="-1.9942041"
     inkscape:cy="115.66384"
     inkscape:window-width="1920"
     inkscape:window-height="1018"
     inkscape:window-x="0"
     inkscape:window-y="30"
     inkscape:window-maximized="1"
     inkscape:current-layer="layer1" />
  <defs
     id="defs1" />
  <g
     inkscape:label="Layer 1"
     inkscape:groupmode="layer"
     id="layer1"
     transform="translate(-68.186367,-116.33296)">
    <g
       id="g1"
       transform="matrix(8.6809838,0,0,8.6809838,-699.48802,-1069.3016)"
       style="stroke-width:0.115194">
      <circle
         style="fill:#262626;fill-opacity:1;stroke-width:0.0575969"
         id="path1"
         cx="91.067505"
         cy="139.21414"
         r="2.6357782" />
      <path
         id="text1"
         style="font-weight:bold;font-size:2.82223px;font-family:Verdana;-inkscape-font-specification:'Verdana Bold';text-align:start;writing-mode:lr-tb;direction:ltr;text-anchor:start;fill:#e5ff6f;fill-opacity:1;stroke-width:0.0575969"
         d="m 90.631586,137.75029 -0.04084,0.39507 -0.312732,0.0135 -0.449312,-0.0274 v 0.29997 h 0.735238 l -0.01404,0.46271 c -0.571853,0.22693 -0.857778,0.57661 -0.857778,1.0486 0,0.17248 0.05013,0.31727 0.149983,0.43528 0.108919,0.10893 0.23579,0.16339 0.381023,0.16339 0.208772,0 0.435908,-0.11758 0.680988,-0.35358 0.24508,-0.23601 0.453637,-0.60362 0.626102,-1.10286 0.390312,0.0998 0.585893,0.30408 0.585893,0.6127 0,0.40847 -0.358966,0.63497 -1.076052,0.68035 l 0.109141,0.29997 c 0.862319,-0.12708 1.293687,-0.44953 1.293687,-0.96692 0,-0.46293 -0.277273,-0.76246 -0.830972,-0.89863 l 0.04084,-0.13594 -0.29933,-0.0683 -0.02744,0.16339 -0.122541,-0.0135 -0.353579,0.0409 0.0134,-0.36762 1.320493,-0.0409 -0.0134,-0.28592 -1.279647,0.0268 0.04084,-0.36762 z m 0.612699,1.29369 c -0.118009,0.354 -0.267772,0.63992 -0.449312,0.85777 l 0.04084,-0.44931 v -0.35421 z m -0.694392,0.14934 c 0,0.44478 0.01361,0.74431 0.04084,0.89863 -0.127078,0.10893 -0.240327,0.16339 -0.340174,0.16339 -0.06354,0 -0.127292,-0.0316 -0.190831,-0.0951 -0.05446,-0.0726 -0.0817,-0.14999 -0.0817,-0.23167 0,-0.29955 0.190617,-0.54463 0.571852,-0.73525 z" />
    </g>
  </g>
</svg>
